<svg xmlns="http://www.w3.org/2000/svg" width="160.759" height="72.003" viewBox="0 0 160.759 72.003">
  <g id="Group_435" data-name="Group 435" transform="translate(7589.5 -2845.591)">
    <path id="Path_1993" data-name="Path 1993" d="M30.967,1.995V35.447L2,18.721Z" transform="translate(-7588.952 2846.045)" fill="#006332"/>
    <path id="Path_1994" data-name="Path 1994" d="M59.261,18.721,30.29,35.452h-.005V2Z" transform="translate(-7588.27 2846.045)" fill="#d9da00"/>
    <path id="Path_1995" data-name="Path 1995" d="M59.261,18.327V51.784L30.289,35.058Z" transform="translate(-7588.27 2846.439)" fill="#8cb923"/>
    <path id="Path_1996" data-name="Path 1996" d="M59.261,51.39V51.4L30.284,68.121V34.664h.005Z" transform="translate(-7588.27 2846.833)" fill="#006332"/>
    <path id="Path_1997" data-name="Path 1997" d="M30.967,34.664V68.121L2,51.4V51.39Z" transform="translate(-7588.952 2846.833)" fill="#d9da00"/>
    <path id="Path_1998" data-name="Path 1998" d="M30.967,35.053v.005L2,51.784V18.327Z" transform="translate(-7588.952 2846.439)" fill="#8cb923"/>
    <path id="Path_2005" data-name="Path 2005" d="M31.017,71h-.079a2.046,2.046,0,0,1-.332-.04h0a2.04,2.04,0,0,1-.611-.232L1.039,54.009a2.029,2.029,0,0,1-.764-.757l-.016-.027,0-.006L.245,53.2l0-.008L.23,53.17l0-.007L.2,53.106h0A2.035,2.035,0,0,1,0,52.2V18.77c0-.01,0-.019,0-.029a2.046,2.046,0,0,1,1.564-2.054L29.994.274A2.042,2.042,0,0,1,31.4.037h0l.012,0a2.03,2.03,0,0,1,.676.266L61.013,17a2.044,2.044,0,0,1,1.022,1.77V52.23A2.044,2.044,0,0,1,61.013,54L32.106,70.686A2.032,2.032,0,0,1,31.018,71Zm-2.043-5.583V39.041L6.131,52.23Zm4.087,0L55.989,52.182,33.061,38.943ZM4.088,48.691,27.015,35.452,4.088,22.214Zm53.861-.1V22.31L35.189,35.452ZM33.061,31.961,55.906,18.77,33.061,5.584Zm-4.087-.1V5.583L6.214,18.722Z" transform="translate(-7589 2846.094)" fill="#2d2d2b" stroke="rgba(0,0,0,0)" stroke-width="1"/>
    <g id="Group_434" data-name="Group 434" transform="translate(-7517.023 2866.964)">
      <path id="Path_2003" data-name="Path 2003" d="M5.943-10.411a7.367,7.367,0,0,1,2.012.275A4.4,4.4,0,0,1,9.506-9.4L8.155-7.04A3.023,3.023,0,0,0,7.2-7.5a3.819,3.819,0,0,0-1.077-.163,2.308,2.308,0,0,0-1.752.72,2.874,2.874,0,0,0-.683,2.057,2.825,2.825,0,0,0,.631,1.953,2.258,2.258,0,0,0,1.775.705,3.425,3.425,0,0,0,2.168-.817L9.685-.907A4.6,4.6,0,0,1,8.059.11,6.186,6.186,0,0,1,5.764.518,5.5,5.5,0,0,1,3.01-.157a4.652,4.652,0,0,1-1.849-1.9A5.953,5.953,0,0,1,.507-4.9a5.986,5.986,0,0,1,.676-2.9,4.746,4.746,0,0,1,1.908-1.93A5.785,5.785,0,0,1,5.943-10.411Zm8.7,8.791a3.482,3.482,0,0,0,2.064-.653l.921,1.841a5.339,5.339,0,0,1-3.3.95A4.384,4.384,0,0,1,11.251-.536,3.96,3.96,0,0,1,10.1-3.61a4.585,4.585,0,0,1,.5-2.146,3.727,3.727,0,0,1,1.388-1.5A3.864,3.864,0,0,1,14.036-7.8a3.9,3.9,0,0,1,2.027.49A3.08,3.08,0,0,1,17.288-6a4.022,4.022,0,0,1,.4,1.8,5.638,5.638,0,0,1-.148,1.336H12.907A1.582,1.582,0,0,0,14.644-1.62Zm-.549-4.143a1.132,1.132,0,0,0-.787.267,1.618,1.618,0,0,0-.416.936h2.2Q15.045-5.763,14.095-5.763ZM19.114-7.53H21l.445,1.1h.089a3.552,3.552,0,0,1,1.151-1.039A3.015,3.015,0,0,1,24.119-7.8a2.761,2.761,0,0,1,2.02.728,2.7,2.7,0,0,1,.742,2.02v5.3H24.059V-4.1q0-.98-.7-.98a1.989,1.989,0,0,0-1.426.921V.251H19.114ZM31.454.518a2.666,2.666,0,0,1-1.886-.587,2.5,2.5,0,0,1-.624-1.893V-5.124H27.89V-7.53h1.054v-.683l1.173-1.366H31.8V-7.53h1.886v2.406H31.8v2.539a.619.619,0,0,0,.134.438.571.571,0,0,0,.431.141,3.274,3.274,0,0,0,.98-.163l.653,1.96A4.448,4.448,0,0,1,31.454.518ZM35.3-7.53h2.183L37.9-6.372h.045a2.7,2.7,0,0,1,.809-1.121,1.714,1.714,0,0,1,1-.3,2.487,2.487,0,0,1,1.173.3l-.5,2.524a2.156,2.156,0,0,0-.416-.178,1.292,1.292,0,0,0-.342-.045,1.231,1.231,0,0,0-.869.356,2.72,2.72,0,0,0-.631,1.218V.251H35.3Zm14.523,0V.251H47.952l-.445-.965a2.781,2.781,0,0,1-.958.839,3.1,3.1,0,0,1-1.463.3,2.942,2.942,0,0,1-2.161-.742,2.674,2.674,0,0,1-.75-1.99V-7.53h2.792v4.559a.889.889,0,0,0,.215.683A.893.893,0,0,0,45.8-2.1a1.292,1.292,0,0,0,1.218-.965V-7.53ZM61.154-7.8a2.617,2.617,0,0,1,1.9.72A2.5,2.5,0,0,1,63.8-5.2V.251H60.9v-4.99a.572.572,0,0,0-.156-.423.613.613,0,0,0-.453-.156,1.133,1.133,0,0,0-.653.215,1.406,1.406,0,0,0-.49.691V.251H56.239v-4.99a.519.519,0,0,0-.594-.579,1.286,1.286,0,0,0-1.158.906V.251h-2.9V-7.53h2.2L54-6.506h.059a2.473,2.473,0,0,1,2.3-1.292A2.354,2.354,0,0,1,58.7-6.491a2.712,2.712,0,0,1,.98-.958A2.911,2.911,0,0,1,61.154-7.8Z" transform="translate(11.892 10.411)" fill="#2d2d2b"/>
      <path id="Path_2004" data-name="Path 2004" d="M7.3-1.29H3.826L3.321.269H.218l3.92-10.395H6.93L11.028.269H7.835Zm-.772-2.3L5.519-6.576l-.95,2.985ZM17.161.269,15.438-2.4l-.564.624V.269H12.053V-10.9h2.821v5.836l1.812-2.45h3.356L17.235-4.394,20.413.269Zm7.351.267A2.666,2.666,0,0,1,22.626-.05,2.5,2.5,0,0,1,22-1.943V-5.106H20.948V-7.512H22V-8.2l1.173-1.366h1.678v2.049h1.886v2.406H24.853v2.539a.619.619,0,0,0,.134.438.571.571,0,0,0,.431.141,3.274,3.274,0,0,0,.98-.163l.653,1.96A4.448,4.448,0,0,1,24.512.537ZM36.54-7.542,33.644.789a4.516,4.516,0,0,1-1.3,2.079,3.181,3.181,0,0,1-2.057.639,7.755,7.755,0,0,1-1.314-.089,9.912,9.912,0,0,1-1.091-.267l.49-2.094a4.577,4.577,0,0,0,1.366.223A.926.926,0,0,0,30.645.7l.074-.163-3.1-8.078h2.94l1.53,4.871,1.381-4.871Zm12.979.03L46.638.269H44.93L43.549-3.636,42.019.269H40.312L37.669-7.512h2.718l1.069,4.054,1.336-4.054h1.737l1.277,4.024.98-4.024Zm1.173,0h1.886l.445,1.1h.089a3.552,3.552,0,0,1,1.151-1.039A3.015,3.015,0,0,1,55.7-7.779a2.761,2.761,0,0,1,2.02.728,2.7,2.7,0,0,1,.742,2.02v5.3H55.637V-4.082q0-.98-.7-.98a1.989,1.989,0,0,0-1.426.921V.269H50.692Zm13.424-.267a4.75,4.75,0,0,1,2.057.453,3.627,3.627,0,0,1,1.544,1.388A4.282,4.282,0,0,1,68.3-3.621,4.282,4.282,0,0,1,67.717-1.3,3.627,3.627,0,0,1,66.173.084a4.75,4.75,0,0,1-2.057.453A4.75,4.75,0,0,1,62.059.084,3.627,3.627,0,0,1,60.515-1.3a4.282,4.282,0,0,1-.587-2.317,4.282,4.282,0,0,1,.587-2.317,3.627,3.627,0,0,1,1.544-1.388A4.75,4.75,0,0,1,64.116-7.779Zm0,2.48a1.182,1.182,0,0,0-.988.423,2,2,0,0,0-.334,1.255,2,2,0,0,0,.334,1.255,1.182,1.182,0,0,0,.988.423,1.182,1.182,0,0,0,.988-.423,2,2,0,0,0,.334-1.255A2,2,0,0,0,65.1-4.876,1.182,1.182,0,0,0,64.116-5.3Zm8.895-2.48a6.034,6.034,0,0,1,1.6.208,3.989,3.989,0,0,1,1.292.594l-.757,1.871a4.3,4.3,0,0,0-1.01-.386,4.187,4.187,0,0,0-1.025-.148q-.683,0-.683.356,0,.208.26.327a4.253,4.253,0,0,0,.809.238,8.6,8.6,0,0,1,1.3.394,2.259,2.259,0,0,1,.921.713,2.134,2.134,0,0,1,.394,1.359A2.4,2.4,0,0,1,75.12-.184a4.17,4.17,0,0,1-2.51.72A5.906,5.906,0,0,1,70.91.3,4.283,4.283,0,0,1,69.64-.28l.594-2.094a3.963,3.963,0,0,0,1.047.4,4.8,4.8,0,0,0,1.091.134q.936,0,.936-.371,0-.193-.245-.3a4.948,4.948,0,0,0-.78-.245A9.429,9.429,0,0,1,71-3.191a2.344,2.344,0,0,1-.9-.705,2.022,2.022,0,0,1-.386-1.3A2.272,2.272,0,0,1,70.6-7.089,3.822,3.822,0,0,1,73.011-7.779Zm.609-.728h-1.5l.832-2.391h2.881Zm7.559.728a5,5,0,0,1,1.47.223,3.662,3.662,0,0,1,1.307.713l-.995,1.96a2.365,2.365,0,0,0-.691-.364,2.361,2.361,0,0,0-.75-.126,1.567,1.567,0,0,0-1.158.445,1.707,1.707,0,0,0-.445,1.262,1.866,1.866,0,0,0,.438,1.292,1.47,1.47,0,0,0,1.151.49,2.452,2.452,0,0,0,.787-.141,2.055,2.055,0,0,0,.728-.423L84.148-.622a3.464,3.464,0,0,1-1.329.876,4.575,4.575,0,0,1-1.6.282,4.38,4.38,0,0,1-2.1-.5,3.684,3.684,0,0,1-1.485-1.455,4.45,4.45,0,0,1-.542-2.242,4.3,4.3,0,0,1,.542-2.205,3.649,3.649,0,0,1,1.47-1.418A4.367,4.367,0,0,1,81.178-7.779ZM88.291.269H85.47V-7.512h2.821ZM86.88-11.165a1.87,1.87,0,0,1,1.151.349A1.223,1.223,0,0,1,88.5-9.769a1.223,1.223,0,0,1-.468,1.047,1.87,1.87,0,0,1-1.151.349,1.765,1.765,0,0,1-1.114-.356,1.235,1.235,0,0,1-.46-1.039,1.235,1.235,0,0,1,.46-1.039A1.765,1.765,0,0,1,86.88-11.165Z" transform="translate(-0.217 25.755)" fill="#2d2d2b"/>
    </g>
  </g>
</svg>
