<svg xmlns="http://www.w3.org/2000/svg" width="361.258" height="393.685" viewBox="0 0 361.258 393.685">
  <g id="Group_358" data-name="Group 358" transform="translate(-400.128 -2800.76)">
    <g id="freepik--Shadows--inject-14" transform="translate(370.125 2765.779)">
      <path id="freepik--Shadow--inject-14" d="M228.47,427.63l-96.95-56c-2.4-1.38-2.4-3.62,0-5L236.59,306a9.57,9.57,0,0,1,8.66,0l97,56c2.39,1.38,2.39,3.61,0,5L237.13,427.63a9.57,9.57,0,0,1-8.66,0Z" fill="#e0e0e0"/>
      <path id="freepik--shadow--inject-14-2" data-name="freepik--shadow--inject-14" d="M72.36,403.17,31.72,379.71c-2.29-1.32-2.29-3.47,0-4.79L268.11,238.44a9.19,9.19,0,0,1,8.3,0l40.64,23.46c2.29,1.33,2.29,3.47,0,4.79L80.66,403.17a9.13,9.13,0,0,1-8.3,0Z" fill="#e0e0e0"/>
    </g>
    <g id="freepik--Device--inject-14" transform="translate(370.125 2765.779)">
      <g id="freepik--device--inject-14-2" data-name="freepik--device--inject-14">
        <path id="Path_1212" data-name="Path 1212" d="M218.44,356.71l34.94-20.2c3.6-2.08,5.4-4.81,5.4-7.53v-4.86l-36.25-20.44a7.7,7.7,0,0,1-3.48-6V260.39l-61,35.26v37.27a7.7,7.7,0,0,0,3.48,6l30.84,17.77C199.56,360.87,211.24,360.87,218.44,356.71Z" fill="#263238"/>
        <path id="Path_1213" data-name="Path 1213" d="M172.7,340.54v4.84l-11.19-6.44a7.7,7.7,0,0,1-3.47-6V295.65l11.62-6.71c.25,2.95.51,6,.75,9l-8.15,4.72V330.5a7.65,7.65,0,0,0,3.47,6Z"/>
        <path id="Path_1214" data-name="Path 1214" d="M162.25,330.49a7.67,7.67,0,0,0,3.48,6l26.62,15.34c7.21,4.16,18.89,4.16,26.09,0l34.95-20.2c7.21-4.15,7.21-10.89,0-15l-26.64-15.35a7.68,7.68,0,0,1-3.48-6v-27.9l-61,35.26Z" fill="#455a64"/>
        <path id="Path_1215" data-name="Path 1215" d="M233.84,305.35h0l-7.08-4.09a7.68,7.68,0,0,1-3.48-6V267.38l-61,35.26v27.85a7.67,7.67,0,0,0,3.48,6l7,4Z" fill="#37474f"/>
        <path id="Path_1216" data-name="Path 1216" d="M258.79,324.12V329c0,2.73-1.81,5.44-5.4,7.53L218.45,356.7A26.17,26.17,0,0,1,206,359.79V355a26.171,26.171,0,0,0,12.45-3.09l34.94-20.21C257,329.58,258.79,326.85,258.79,324.12Z" fill="#37474f"/>
        <path id="Path_1217" data-name="Path 1217" d="M64.27,372.33a9.32,9.32,0,0,0,8.43-.16l236-136.25a9.6,9.6,0,0,0,4.35-7.53V43.28A9.3,9.3,0,0,0,309,35.91a9.3,9.3,0,0,0-8.42.16l-236,136.25a9.58,9.58,0,0,0-4.34,7.52V365a9.34,9.34,0,0,0,4.03,7.33Z" fill="#455a64"/>
        <path id="Path_1218" data-name="Path 1218" d="M72.7,372.16l236-136.24a9.61,9.61,0,0,0,4.34-7.53V43.28c0-2.77-1.94-3.9-4.34-2.51L72.7,177a9.61,9.61,0,0,0-4.35,7.53v185.1C68.35,372.43,70.3,373.55,72.7,372.16Z" fill="#37474f"/>
        <path id="Path_1219" data-name="Path 1219" d="M72.06,377.13a9.42,9.42,0,0,1-7.79-.16,9.35,9.35,0,0,1-4.08-7.39V358l8.16,4.72V374.3C68.35,376.83,70,378,72.06,377.13Z" fill="#37474f"/>
        <path id="Path_1220" data-name="Path 1220" d="M68.35,362.72v11.57c0,2.77,2,3.9,4.35,2.51l236-136.25A9.61,9.61,0,0,0,313,233V221.41Z" fill="#455a64"/>
        <path id="Path_1221" data-name="Path 1221" d="M76.51,340.91V187.25a5.76,5.76,0,0,1,2.61-4.51L302.27,53.9c1.44-.83,2.61-.16,2.61,1.5V209.06a5.76,5.76,0,0,1-2.61,4.52L79.11,342.42C77.67,343.25,76.51,342.57,76.51,340.91Z" fill="#8cbe22"/>
        <path id="Path_1222" data-name="Path 1222" d="M76.51,340.91V187.25a5.76,5.76,0,0,1,2.61-4.51L302.27,53.9c1.44-.83,2.61-.16,2.61,1.5V209.06a5.76,5.76,0,0,1-2.61,4.52L79.11,342.42C77.67,343.25,76.51,342.57,76.51,340.91Z" fill="#8cbe22"/>
        <path id="Path_1223" data-name="Path 1223" d="M76.51,340.91V187.25a5.76,5.76,0,0,1,2.61-4.51L302.27,53.9c1.44-.83,2.61-.16,2.61,1.5V209.06a5.76,5.76,0,0,1-2.61,4.52L79.11,342.42C77.67,343.25,76.51,342.57,76.51,340.91Z" fill="#fff" opacity="0.8"/>
        <path id="Path_1224" data-name="Path 1224" d="M190.69,296.39a8,8,0,0,0-3.59,6.23c0,2.29,1.61,3.22,3.59,2.07a7.92,7.92,0,0,0,3.6-6.22C194.29,296.17,192.68,295.24,190.69,296.39Z" fill="#8cbe22"/>
        <path id="Path_1225" data-name="Path 1225" d="M69.63,180.25a9.23,9.23,0,0,0-1.28,4.29V362.72L60.19,358V179.84a8.89,8.89,0,0,1,1.28-4.29Z" fill="#263238"/>
      </g>
    </g>
    <g id="freepik--Newsletter--inject-14" transform="translate(370.125 2765.779)">
      <g id="freepik--newsletter--inject-14-2" data-name="freepik--newsletter--inject-14">
        <g id="freepik--Envelope--inject-14">
          <path id="Path_1226" data-name="Path 1226" d="M122,196.15l133.38-77,5.34,3.08a5.57,5.57,0,0,1,2.51,4.35V225a5.55,5.55,0,0,1-2.51,4.34L132.31,303.42a5.61,5.61,0,0,1-5,0l-2.83-1.64a5.55,5.55,0,0,1-2.51-4.34Z" fill="#8cbe22"/>
          <path id="Path_1227" data-name="Path 1227" d="M122,196.15l133.38-77,5.34,3.08a5.57,5.57,0,0,1,2.51,4.35V225a5.55,5.55,0,0,1-2.51,4.34L132.31,303.42a5.61,5.61,0,0,1-5,0l-2.83-1.64a5.55,5.55,0,0,1-2.51-4.34Z" opacity="0.2"/>
          <path id="Path_1228" data-name="Path 1228" d="M254.6,110.49l.54-.3-2.07-1.2h0a3.941,3.941,0,0,0-.55-.26L193.82,87a4.06,4.06,0,0,0-4.51,1.44L123.65,184.3a11.34,11.34,0,0,0-1.7,5.48v6.37l2,1.18,131.34-78.19v-6.37A4.3,4.3,0,0,0,254.6,110.49Z" fill="#8cbe22"/>
          <path id="Path_1229" data-name="Path 1229" d="M192,88.87a3.32,3.32,0,0,0-.68.72l-65.67,95.89a10.2,10.2,0,0,0-1.22,2.74l-2-1.18a13.1,13.1,0,0,1,.53-1.45h0c.09-.2.18-.39.28-.58v-.09a5.229,5.229,0,0,1,.35-.58l65.66-95.89a3.19,3.19,0,0,1,.33-.4l.35-.32Z" opacity="0.1"/>
          <path id="Path_1230" data-name="Path 1230" d="M255.12,110.18a3.2,3.2,0,0,0-.56-.27L195.85,88.15a4,4,0,0,0-3.82.72l-2-1.18a4.07,4.07,0,0,1,3.83-.72l58.7,21.75a3.11,3.11,0,0,1,.55.27Z" fill="#fff" opacity="0.35"/>
          <path id="Path_1231" data-name="Path 1231" d="M123.3,184.88a6.363,6.363,0,0,1,.35-.58,6.366,6.366,0,0,0-.35.58Z" fill="#8cbe22"/>
          <path id="Path_1232" data-name="Path 1232" d="M189.64,88l.35-.32Z" fill="#8cbe22"/>
          <path id="Path_1233" data-name="Path 1233" d="M122.42,187.05a12.562,12.562,0,0,1,.53-1.46,12.559,12.559,0,0,0-.53,1.46Z" fill="#8cbe22"/>
          <path id="Path_1234" data-name="Path 1234" d="M123,185.55c.09-.2.18-.39.28-.58A2.063,2.063,0,0,0,123,185.55Z" fill="#8cbe22"/>
          <path id="Path_1235" data-name="Path 1235" d="M123,185.59Z" opacity="0.2"/>
          <path id="Path_1236" data-name="Path 1236" d="M122.42,187.05h0v0Z" opacity="0.2"/>
          <path id="Path_1237" data-name="Path 1237" d="M189.99,87.69Z" opacity="0.2"/>
          <path id="Path_1238" data-name="Path 1238" d="M123.25,185a.41.41,0,0,1,0-.09A.41.41,0,0,0,123.25,185Z" opacity="0.2"/>
          <path id="Path_1239" data-name="Path 1239" d="M189.31,88.41a4.123,4.123,0,0,1,.33-.4,4.122,4.122,0,0,0-.33.4Z" opacity="0.2"/>
          <path id="Path_1240" data-name="Path 1240" d="M191.35,89.59l-65.67,95.89A11.44,11.44,0,0,0,124,191v6.37l133.38-77V114a4.62,4.62,0,0,0-2.81-4L195.85,88.16A4,4,0,0,0,191.35,89.59Z" fill="#8cbe22"/>
          <path id="Path_1241" data-name="Path 1241" d="M257.37,114a4.35,4.35,0,0,0-.71-2.24l-132.2,76.51h0A9.8,9.8,0,0,0,124,191v6.37l133.38-77Z" opacity="0.05"/>
          <path id="Path_1242" data-name="Path 1242" d="M181.11,209.46a51.72,51.72,0,0,1,4.09,20.18v3.89l-49.82,26h0V199.65a15,15,0,0,1,.39-3.43h0c.1-.44.23-.87.36-1.3l.22-.64a13.871,13.871,0,0,1,.84-1.84,14.649,14.649,0,0,1,1.92-2.76c.21-.25.44-.49.67-.72s.48-.46.73-.68a15.19,15.19,0,0,1,17.65-1.77s.88-.36,2.5-1a52.08,52.08,0,0,1,17.58,18.15,53.717,53.717,0,0,1,2.87,5.8Z" fill="#e0e0e0"/>
          <path id="Path_1243" data-name="Path 1243" d="M341.11,362.75l-108.3,62.67v-5.88L341.1,356.87Z" fill="#f5f5f5"/>
          <path id="Path_1244" data-name="Path 1244" d="M181.11,209.46a53.722,53.722,0,0,0-2.87-5.79q-1.19-2.05-2.56-4c-.25-.36-.51-.72-.78-1.07s-.48-.65-.73-1-.42-.54-.64-.8l-.21-.26-.82-1a5.087,5.087,0,0,0-.38-.43c-.21-.25-.44-.5-.66-.74-.5-.55-1-1.09-1.55-1.6-.3-.31-.6-.61-.91-.89a3.253,3.253,0,0,0-.27-.26l-.84-.77c-.33-.3-.66-.59-1-.87s-.55-.47-.84-.7a4.781,4.781,0,0,0-.42-.34c-.32-.26-.65-.51-1-.76s-.85-.64-1.29-1a13.9,13.9,0,0,0-1.34-.92l-1.36-.88-.26-.16-1.17-.7c-.35-.2-.71-.39-1.06-.56a20.1,20.1,0,0,0-1.87-.79,18.769,18.769,0,0,0-2.12-.61l-.71-.14a17.341,17.341,0,0,0-2.86-.24h-.77a10.543,10.543,0,0,0-1.13.09l-.63.08-.41.06a3.89,3.89,0,0,0-.47.09h-.06l-.7.16a5.258,5.258,0,0,0-.53.15l-.27.08q-.28.08-.57.18a13.66,13.66,0,0,0-1.5.58c-.3.13-.6.28-.9.43a1.3,1.3,0,0,0-.26.14c-.16.08-.33.17-.49.27l-.47.29a16.936,16.936,0,0,0-1.66,1.15s-.06.05-.08.07c-.27.22-.54.44-.81.69h0l-.56.53c-.11.1-.21.21-.31.31a18.229,18.229,0,0,0-1.39,1.64c-.18.24-.35.48-.51.73s-.38.58-.56.89h0a9.749,9.749,0,0,0-.49.9,13.067,13.067,0,0,0-.57,1.26c-.08.2-.17.41-.24.63s-.07.19-.1.28c-.11.32-.2.64-.29,1s-.17.64-.23,1h0a6.42,6.42,0,0,0-.13.66,2.169,2.169,0,0,0,0,.25c0,.22-.07.43-.09.64s-.06.57-.07.86,0,.79,0,1.2v47.77h5.14V199.66a12.17,12.17,0,0,1,18.27-10.55,47,47,0,0,1,19.48,21.82l6.1,1.45C181.89,211.4,181.51,210.42,181.11,209.46Z" fill="#ebebeb"/>
          <path id="Path_1245" data-name="Path 1245" d="M259.8,226.27a1.211,1.211,0,0,1-.14.2l-55.59-17.62a9.58,9.58,0,0,0-12,3.69l-59.42,88.32-2.2,1.27h0a1.79,1.79,0,0,1-1.7.19l61.11-91a9.62,9.62,0,0,1,12-3.7Z" fill="#8cbe22"/>
          <path id="Path_1246" data-name="Path 1246" d="M186.59,221.21l.14-.12-54.09,79.77-2.2,1.27h0a1.82,1.82,0,0,1-1.7.19l55.73-82.4Z" fill="#fff" opacity="0.4"/>
          <path id="Path_1247" data-name="Path 1247" d="M259.8,226.27a1.211,1.211,0,0,1-.14.2l-55.59-17.63a9.57,9.57,0,0,0-12,3.7l-2.2-1.28a9.6,9.6,0,0,1,12-3.68Z" fill="#fff" opacity="0.4"/>
          <path id="Path_1248" data-name="Path 1248" d="M263.13,125.94h0c-.12-.72-.5-.92-1-.58a2.89,2.89,0,0,0-.64.66l-.28.39L206.36,209.8l-8.19,11.41a4.67,4.67,0,0,1-4.51,1.69l-7.07-1.68-54-19.87a2.75,2.75,0,0,0-1.1,0,2,2,0,0,0-.41.13l2-1.18,51.74,19,6.81,2.44a4.65,4.65,0,0,0,4.51-1.69l8.19-11.4,55.12-83.78a2.2,2.2,0,0,1,.62-.57l-4.77-2.75,2-1.15,3.3,1.9a5.72,5.72,0,0,1,2.53,3.64Z" fill="#8cbe22"/>
          <path id="Path_1249" data-name="Path 1249" d="M206.36,209.79l-8.19,11.41a4.67,4.67,0,0,1-4.51,1.69l-7.07-1.68.14-.12.34-.54,4.63,1.1a4.65,4.65,0,0,0,4.51-1.69l8.11-11.28Z" fill="#fff" opacity="0.4"/>
          <path id="Path_1250" data-name="Path 1250" d="M260.67,122.21l-3.3-1.9-2,1.15,4.77,2.75h0a2.1,2.1,0,0,0-.62.57L204.4,208.56l-.08.11h0l2,1.11,54.85-83.39.28-.39a2.89,2.89,0,0,1,.64-.66c.49-.34.87-.14,1,.58h0a5.72,5.72,0,0,0-2.42-3.71Z" opacity="0.1"/>
          <path id="Path_1251" data-name="Path 1251" d="M133.72,202.94,122,196.15V297.44a5.55,5.55,0,0,0,2.51,4.34l2.83,1.63a5.58,5.58,0,0,0,5,0l1.41-.82Z" fill="#8cbe22"/>
          <path id="Path_1252" data-name="Path 1252" d="M133.72,202.94,122,196.15V297.44a5.55,5.55,0,0,0,2.51,4.34l2.83,1.63a5.58,5.58,0,0,0,5,0l1.41-.82Z" opacity="0.15"/>
          <path id="Path_1253" data-name="Path 1253" d="M261.21,126.41v97.32a5,5,0,0,1-.78,2.54,5.2,5.2,0,0,1-1.47,1.64l-.09.06-.17.11-128.36,74.1h0a2.383,2.383,0,0,1-.49.23,3.191,3.191,0,0,1,0-.45v-98.4a2.18,2.18,0,0,1,2.82-2.22l54,19.87,7.07,1.68a4.67,4.67,0,0,0,4.51-1.69l8.19-11.41Z" fill="#455a64"/>
          <path id="Path_1254" data-name="Path 1254" d="M263.18,126.57V225a5.11,5.11,0,0,1-.78,2.54,5.48,5.48,0,0,1-1.47,1.65h-.1a1.53,1.53,0,0,1-.16.11L132.31,303.4h0a1.79,1.79,0,0,1-1.71.2,1.52,1.52,0,0,1-.75-1.2,3.191,3.191,0,0,1,0-.45v-98.4a2.18,2.18,0,0,1,2.82-2.22l54,19.87,7.07,1.68a4.67,4.67,0,0,0,4.51-1.69l8.19-11.41,54.85-83.39.28-.39C262.42,124.73,263.18,125,263.18,126.57Z" fill="#8cbe22"/>
          <path id="Path_1255" data-name="Path 1255" d="M260.67,229.31l.17-.11.09-.06a5.321,5.321,0,0,0,1.47-1.64,5.11,5.11,0,0,0,.78-2.5l-56.81-15.2,38,28.9Z" fill="#8cbe22"/>
          <path id="Path_1256" data-name="Path 1256" d="M260.67,229.31l.17-.11.09-.06a5.321,5.321,0,0,0,1.47-1.64,5.11,5.11,0,0,0,.78-2.5l-56.81-15.2,38,28.9Z" opacity="0.2"/>
          <path id="Path_1257" data-name="Path 1257" d="M129.8,302a1.73,1.73,0,0,0,.78,1.65,1.75,1.75,0,0,0,1.71-.19h0l44.2-25.51,10.09-56.69-56.8,79.12Z" fill="#8cbe22"/>
          <path id="Path_1258" data-name="Path 1258" d="M192,212.53l-61.46,91.08a1.73,1.73,0,0,1-.78-1.65v-1.63l60-89h0Z" opacity="0.15"/>
          <path id="Path_1259" data-name="Path 1259" d="M262.4,227.5a5.32,5.32,0,0,1-1.47,1.64l-.09.06L132.31,303.41h0a1.75,1.75,0,0,1-1.71.19l61.47-91.09a9.65,9.65,0,0,1,12.08-3.71Z" fill="#8cbe22"/>
          <path id="Path_1260" data-name="Path 1260" d="M262.4,227.5a5.2,5.2,0,0,1-1.47,1.64l-.09.06L132.31,303.41h0a1.81,1.81,0,0,1-1.71.19l1.71-2.72L258.6,228l.1-.06a5.109,5.109,0,0,0,1.33-1.44Z" fill="#8cbe22"/>
          <path id="Path_1261" data-name="Path 1261" d="M122.42,187l2,1.18A10,10,0,0,0,124,191v6.36l-2-1.18v-6.37A10,10,0,0,1,122.42,187Z" opacity="0.15"/>
          <path id="Path_1262" data-name="Path 1262" d="M133.15,200.26l-2.04,1.18-2.06-1.19-5.07-2.92,1.97-1.17Z" fill="#8cbe22"/>
          <path id="Path_1263" data-name="Path 1263" d="M133.24,200.3,126,196.16l-2,1.17,5.07,2.92,2.06,1.19h0l.39-.12a2.75,2.75,0,0,1,1.1,0l4.1,1.52,47.11,17.34.74-1.09Z" opacity="0.1"/>
        </g>
        <path id="Path_1264" data-name="Path 1264" d="M340.86,357.06,232.57,419.73l-21.64-12.5a51.91,51.91,0,0,1-26-45V229.83a51.71,51.71,0,0,0-4.08-20.18,53.719,53.719,0,0,0-2.87-5.79,51.89,51.89,0,0,0-19-19,17.09,17.09,0,0,0-16.56-.42l12.9-7.44,47.58-27.47,46.95-27.28.14-.08a17.13,17.13,0,0,1,17.28,0,51.94,51.94,0,0,1,26,45V299.58a51.94,51.94,0,0,0,26,45Z" fill="#fff"/>
        <path id="Path_1265" data-name="Path 1265" d="M258.64,119.83v1a16.07,16.07,0,0,1,8.13,2.22,50.9,50.9,0,0,1,25.47,44.11V299.58a53.11,53.11,0,0,0,26.47,45.85l20.15,11.64-106.29,61.5-21.15-12.21A51,51,0,0,1,186,362.26V229.83A52.9,52.9,0,0,0,159.48,184a18,18,0,0,0-9.13-2.48h-.88l6.35-3.66,47.58-27.48,47-27.28.12-.07a16.32,16.32,0,0,1,8.15-2.21v-1m0,0a17.34,17.34,0,0,0-8.65,2.34l-.14.08L202.9,149.53,155.32,177l-12.9,7.44a17.36,17.36,0,0,1,7.93-1.93,17.06,17.06,0,0,1,8.63,2.35,51.89,51.89,0,0,1,19,19,53.723,53.723,0,0,1,2.87,5.79A51.71,51.71,0,0,1,185,229.83V362.26a51.91,51.91,0,0,0,26,45l21.64,12.5,108.29-62.67-21.65-12.5a51.94,51.94,0,0,1-26-45V167.16a51.941,51.941,0,0,0-26-45,17.19,17.19,0,0,0-8.629-2.349Z" fill="#f5f5f5"/>
        <path id="Path_1266" data-name="Path 1266" d="M232.81,419.54,211.17,407a51.92,51.92,0,0,1-26-45V229.64a51.74,51.74,0,0,0-3-17.26l-6.1-1.45.33.76a46.43,46.43,0,0,1,3.6,17.95V362.07a57.25,57.25,0,0,0,28.53,49.42L230.28,424l2.53,1.42Z" fill="#f0f0f0"/>
        <path id="Path_1267" data-name="Path 1267" d="M212.51,193.23l46.65-26.91a1.78,1.78,0,0,0,.74-2.15c-.63-1.53-1.35-3-2.12-4.5-.67-1.25-1.38-2.47-2.14-3.66a1.59,1.59,0,0,0-2.12-.5l-46.66,26.93a1.3,1.3,0,0,0-.61,1.78l.66,1a53.3,53.3,0,0,1,3,5.53c.27.59.54,1.19.79,1.8a1.27,1.27,0,0,0,1.81.68Z" fill="#8cbe22"/>
        <path id="Path_1268" data-name="Path 1268" d="M182,187.4l86.08-49.68a1.11,1.11,0,0,0,.26-1.83l-.89-.86a2.13,2.13,0,0,0-2.4-.26L179,184.46a1,1,0,0,0-.2,1.77l.88.85A2,2,0,0,0,182,187.4Z" fill="#e0e0e0"/>
        <path id="Path_1269" data-name="Path 1269" d="M173.12,181.57c-.55-.38-1.1-.76-1.67-1.13-.85-.55-1.72-1.08-2.61-1.58a12.576,12.576,0,0,0-1.23-.63c-.69-.32-.69-.87,0-1.29l86.12-49.72a4.92,4.92,0,0,1,1.48-.68l.18.07a20.441,20.441,0,0,1,2.49,1.22c1.34.79,2.65,1.64,3.91,2.53a.91.91,0,0,1-.09,1.64l-86.1,49.71a2.53,2.53,0,0,1-2.48-.14Z" fill="#8cbe22"/>
        <path id="Path_1270" data-name="Path 1270" d="M173.12,181.57c-.55-.38-1.1-.76-1.67-1.13-.85-.55-1.72-1.08-2.61-1.58a12.576,12.576,0,0,0-1.23-.63c-.69-.32-.69-.87,0-1.29l86.12-49.72a4.92,4.92,0,0,1,1.48-.68l.18.07a20.441,20.441,0,0,1,2.49,1.22c1.34.79,2.65,1.64,3.91,2.53a.91.91,0,0,1-.09,1.64l-86.1,49.71a2.53,2.53,0,0,1-2.48-.14Z" opacity="0.4"/>
        <path id="Path_1271" data-name="Path 1271" d="M254.1,228.71v-37c0-1.19-.06-4.33-.19-5.5a49.291,49.291,0,0,0-.68-5.44,1,1,0,0,0-1.58-.72l-56.43,32.57a2.25,2.25,0,0,0-1,2.22,52.191,52.191,0,0,1,.8,8.6v39.37c0,.82.58,1.16,1.3.75L252.81,231a2.87,2.87,0,0,0,1.29-2.29Z" fill="#8cbe22"/>
        <path id="Path_1272" data-name="Path 1272" d="M254.1,228.71v-37c0-1.19-.06-4.33-.19-5.5a49.291,49.291,0,0,0-.68-5.44,1,1,0,0,0-1.58-.72l-56.43,32.57a2.25,2.25,0,0,0-1,2.22,52.191,52.191,0,0,1,.8,8.6v39.37c0,.82.58,1.16,1.3.75L252.81,231a2.87,2.87,0,0,0,1.29-2.29Z" fill="#fff" opacity="0.8"/>
        <path id="Path_1273" data-name="Path 1273" d="M236.86,208.68,227,228.44l3.58,4.69L210.53,216,195,254.06v8.76c0,.82.58,1.16,1.3.75L252.81,231a2.87,2.87,0,0,0,1.29-2.25V223Z" fill="#8cbe22"/>
        <path id="Path_1274" data-name="Path 1274" d="M216,261.58l46.62-26.92c.72-.41,1.3-.08,1.3.75v6.38a2.86,2.86,0,0,1-1.3,2.25L216,271c-.72.41-1.3.08-1.3-.75v-6.38a2.86,2.86,0,0,1,1.3-2.29Z" fill="#8cbe22"/>
        <path id="Path_1275" data-name="Path 1275" d="M206.18,281.33l66.31-38.28c.72-.42,1.3-.08,1.3.75v1.69a2.87,2.87,0,0,1-1.3,2.25L206.18,286c-.72.42-1.3.08-1.3-.75v-1.69a2.89,2.89,0,0,1,1.3-2.23Z" fill="#e0e0e0"/>
        <path id="Path_1276" data-name="Path 1276" d="M201.6,293.36l74.58-43.06c.72-.41,1.3-.08,1.3.75v1.69a2.86,2.86,0,0,1-1.3,2.25L201.6,298.05c-.72.41-1.3.08-1.3-.75v-1.69A2.88,2.88,0,0,1,201.6,293.36Z" fill="#e0e0e0"/>
        <path id="Path_1277" data-name="Path 1277" d="M196.34,310.48l23-13.28c.71-.41,1.29-.07,1.29.75v25.13a2.87,2.87,0,0,1-1.29,2.25l-23,13.28c-.71.41-1.29.08-1.29-.75V312.73a2.87,2.87,0,0,1,1.29-2.25Z" fill="#8cbe22"/>
        <path id="Path_1278" data-name="Path 1278" d="M196.34,310.48l23-13.28c.71-.41,1.29-.07,1.29.75v25.13a2.87,2.87,0,0,1-1.29,2.25l-23,13.28c-.71.41-1.29.08-1.29-.75V312.73a2.87,2.87,0,0,1,1.29-2.25Z" fill="#fff" opacity="0.5"/>
        <path id="Path_1279" data-name="Path 1279" d="M227.85,292.29l23-13.28c.72-.41,1.3-.07,1.3.75V304.9a2.89,2.89,0,0,1-1.3,2.25l-23,13.27c-.72.41-1.3.08-1.3-.75V294.54a2.86,2.86,0,0,1,1.3-2.25Z" fill="#8cbe22"/>
        <path id="Path_1280" data-name="Path 1280" d="M259.35,274.1l23-13.27c.72-.42,1.3-.08,1.3.75v25.13a2.87,2.87,0,0,1-1.3,2.25l-23,13.27c-.72.41-1.3.08-1.3-.75V276.35A2.86,2.86,0,0,1,259.35,274.1Z" fill="#8cbe22"/>
        <path id="Path_1281" data-name="Path 1281" d="M259.35,274.1l23-13.27c.72-.42,1.3-.08,1.3.75v25.13a2.87,2.87,0,0,1-1.3,2.25l-23,13.27c-.72.41-1.3.08-1.3-.75V276.35A2.86,2.86,0,0,1,259.35,274.1Z" opacity="0.3"/>
        <path id="Path_1282" data-name="Path 1282" d="M278.89,305.06l-76.16,44c-.72.41-1.3.07-1.3-.75v-1.69a2.89,2.89,0,0,1,1.3-2.25l76.16-44c.71-.41,1.3-.07,1.3.75v1.69A2.86,2.86,0,0,1,278.89,305.06Z" fill="#e0e0e0"/>
        <path id="Path_1283" data-name="Path 1283" d="M203.11,358.2l76.17-44a2.51,2.51,0,0,0,1.13-2.24c-.05-.49-.09-1-.13-1.48a.84.84,0,0,0-1.38-.74l-76.14,44a2.66,2.66,0,0,0-1.23,2.24c0,.5.07,1,.12,1.5a.9.9,0,0,0,1.46.72Z" fill="#e0e0e0"/>
        <path id="Path_1284" data-name="Path 1284" d="M245.08,343.31l-46.64,26.93a2,2,0,0,0-.86,2.19,52,52,0,0,0,20.54,27.11,2.66,2.66,0,0,0,2.55.07l46.68-26.95a.84.84,0,0,0,0-1.56A52.06,52.06,0,0,1,246.82,344a1.14,1.14,0,0,0-1.74-.69Z" fill="#8cbe22"/>
        <path id="Path_1285" data-name="Path 1285" d="M245.08,343.31l-46.64,26.93a2,2,0,0,0-.86,2.19,52,52,0,0,0,20.54,27.11,2.66,2.66,0,0,0,2.55.07l46.68-26.95a.84.84,0,0,0,0-1.56A52.06,52.06,0,0,1,246.82,344a1.14,1.14,0,0,0-1.74-.69Z" fill="#fff" opacity="0.8"/>
        <path id="Path_1286" data-name="Path 1286" d="M267.39,371.1a52.122,52.122,0,0,1-8.34-6.93c-7.78-.64-20.16-3.22-20.16-3.22l-3.63,12.31,8.32,2.93c-7.07.56-28.85-4.69-28.85-4.69-1.57,7.44-1.49,20.2-1.42,24.4a50.562,50.562,0,0,0,4.81,3.64,2.66,2.66,0,0,0,2.55.07l46.68-26.95a.84.84,0,0,0,.04-1.56Z" fill="#8cbe22" opacity="0.8"/>
        <path id="Path_1287" data-name="Path 1287" d="M239.69,355.43a3.49,3.49,0,0,0,4.56,1.2,3.3,3.3,0,0,0,1.11-4.36,3.38,3.38,0,0,0-4.44-1.4,3.49,3.49,0,0,0-1.23,4.56Z" fill="#8cbe22" opacity="0.8"/>
        <path id="Path_1288" data-name="Path 1288" d="M264.53,350.84l27-15.57a1.39,1.39,0,0,0,.46-2c-.92-1.43-1.78-2.91-2.56-4.43a1.4,1.4,0,0,0-2-.6L260.47,343.8a1.61,1.61,0,0,0-.63,2.1c.78,1.52,1.64,3,2.56,4.44A1.62,1.62,0,0,0,264.53,350.84Z" fill="#8cbe22"/>
        <path id="Path_1289" data-name="Path 1289" d="M264.78,360.07l36.82-21.25a1.15,1.15,0,0,0,.28-1.85l-.76-.87a1.88,1.88,0,0,0-2.26-.4L262.05,357a1.21,1.21,0,0,0-.34,1.9c.25.29.5.58.76.86a1.93,1.93,0,0,0,2.31.31Z" fill="#e0e0e0"/>
        <path id="Path_1290" data-name="Path 1290" d="M267.65,364.74q.51.43,1,.84a2.38,2.38,0,0,0,2.49.17L308,344.51a.94.94,0,0,0,.12-1.67c-.36-.28-.7-.57-1-.85a2.28,2.28,0,0,0-2.44-.24L267.82,363a1,1,0,0,0-.17,1.74Z" fill="#e0e0e0"/>
        <path id="Path_1291" data-name="Path 1291" d="M248.48,392.94,295.16,366a2.82,2.82,0,0,1,2.59,0l1.47.84c.72.42.72,1.09,0,1.5l-46.68,26.95a2.84,2.84,0,0,1-2.6,0l-1.46-.84C247.76,394,247.76,393.35,248.48,392.94Z" fill="#e0e0e0"/>
        <path id="Path_1292" data-name="Path 1292" d="M235.71,203.32l46.63-26.93c.72-.42,1.3-.08,1.3.75v6.38a2.87,2.87,0,0,1-1.3,2.25l-46.62,26.92c-.72.41-1.3.08-1.3-.75v-6.37A2.87,2.87,0,0,1,235.71,203.32Z" fill="#fafafa"/>
        <path id="Path_1293" data-name="Path 1293" d="M235.13,213.36a1.14,1.14,0,0,1-.58-.15,1.39,1.39,0,0,1-.63-1.27v-6.37a3.39,3.39,0,0,1,1.54-2.68L282.09,176a1.28,1.28,0,0,1,2.05,1.18v6.38a3.37,3.37,0,0,1-1.55,2.68L236,213.12a1.67,1.67,0,0,1-.87.24Zm.83-9.61a2.4,2.4,0,0,0-1,1.82v6.37c0,.24.07.37.13.41s.2,0,.41-.1l46.63-26.91a2.42,2.42,0,0,0,1.05-1.82v-6.38c0-.25-.07-.37-.13-.41a.51.51,0,0,0-.42.09Z" fill="#e0e0e0"/>
        <path id="Path_1294" data-name="Path 1294" d="M235.71,217.46l46.63-26.93c.72-.41,1.3-.08,1.3.75v6.38a2.86,2.86,0,0,1-1.3,2.25l-46.62,26.92c-.72.42-1.3.08-1.3-.75v-6.37a2.89,2.89,0,0,1,1.29-2.25Z" fill="#fafafa"/>
        <path id="Path_1295" data-name="Path 1295" d="M235.13,227.51a1.06,1.06,0,0,1-.58-.16,1.39,1.39,0,0,1-.63-1.27v-6.37a3.39,3.39,0,0,1,1.54-2.68l46.63-26.93a1.28,1.28,0,0,1,2.05,1.18v6.38a3.39,3.39,0,0,1-1.55,2.69L236,227.26A1.59,1.59,0,0,1,235.13,227.51Zm47.79-36.66a.63.63,0,0,0-.33.12L236,217.9a2.4,2.4,0,0,0-1,1.81v6.37c0,.25.07.37.13.41s.2,0,.41-.09l46.63-26.92a2.39,2.39,0,0,0,1.05-1.82v-6.38c0-.24-.07-.37-.13-.41Z" fill="#e0e0e0"/>
      </g>
    </g>
    <g id="freepik--Plants--inject-14" transform="translate(370.125 2765.779)">
      <g id="freepik--plants--inject-14-2" data-name="freepik--plants--inject-14">
        <path id="Path_1296" data-name="Path 1296" d="M117.08,393.5l8.76-5.1s3-19.09,0-35.59c-4.21-23.2-20.25-30.86-25.95-28.42S93,333.77,103.72,347C110,354.78,116.77,371.89,117.08,393.5Z" fill="#8cbe22"/>
        <g id="Group_352" data-name="Group 352" opacity="0.2">
          <path id="Path_1297" data-name="Path 1297" d="M117.08,393.5l8.76-5.1s3-19.09,0-35.59c-4.21-23.2-20.25-30.86-25.95-28.42S93,333.77,103.72,347C110,354.78,116.77,371.89,117.08,393.5Z"/>
        </g>
        <path id="Path_1298" data-name="Path 1298" d="M121,383.67h0a.52.52,0,0,1-.46-.57c2.51-21.87-6.8-45.55-16.87-54.94a.52.52,0,1,1,.7-.76c10.23,9.6,19.72,33.6,17.18,55.81A.52.52,0,0,1,121,383.67Z" fill="#fff"/>
        <path id="Path_1299" data-name="Path 1299" d="M97.64,404.77c-1.14.68-3.62-.53-4.54-1.12a11.08,11.08,0,0,1-3.76-4.11,10.36,10.36,0,0,1-1-6.17,24.83,24.83,0,0,1,.7-3.3l.85-3.22a8.28,8.28,0,0,0,.39-3.23c-.33-2.17-2.3-3.66-4.09-4.94-2-1.41-4.06-3.29-4.11-5.92a9.25,9.25,0,0,1,2.19-5.56c1.22-1.62,2.68-3.06,3.78-4.76a6.44,6.44,0,0,0,1.22-4.12,6.7,6.7,0,0,0-.94-2.53,37,37,0,0,1-2.92-5.05c-.68-1.83-.64-4.12.77-5.47A6.07,6.07,0,0,1,90.62,344c2.78.12,5.47,2.08,7.68,3.61s3.93,3.63,6.46,4.52c3.31,1.18,7.71.49,9.91,3.87,1.91,2.93.53,6.21.34,9.32-.3,5,4.41,6.88,6.72,10.51a6.45,6.45,0,0,1,.87,4,19.18,19.18,0,0,1-1.52,6.79,66.524,66.524,0,0,1-3.71,6.74C117.3,393.44,97.81,404.66,97.64,404.77Z" fill="#8cbe22"/>
        <path id="Path_1300" data-name="Path 1300" d="M109.25,398.36h0a.52.52,0,0,1-.51-.53c.38-20.65-9.87-43.2-17.09-49.66a.52.52,0,0,1,0-.73.51.51,0,0,1,.73,0c7.37,6.58,17.82,29.5,17.44,50.44a.53.53,0,0,1-.57.48Z" fill="#fff"/>
        <path id="Path_1301" data-name="Path 1301" d="M105.59,374.06a.26.26,0,0,1-.15,0,69.87,69.87,0,0,0-15-2.06.54.54,0,0,1-.51-.53.5.5,0,0,1,.53-.51,70.749,70.749,0,0,1,15.29,2.1.52.52,0,0,1,.36.65.5.5,0,0,1-.52.35Z" fill="#fff"/>
      </g>
    </g>
    <g id="freepik--speech-bubble--inject-14" transform="translate(370.125 2765.779)">
      <g id="freepik--speach-bubble--inject-14">
        <path id="Path_1302" data-name="Path 1302" d="M384.08,103.62l-49.85,28.74a3.24,3.24,0,0,0-1.48,2.55v60.51a3.24,3.24,0,0,0,1.49,2.54l2.69,1.52a3.31,3.31,0,0,0,3,0l49.85-28.73a3.26,3.26,0,0,0,1.48-2.56v-60.5a3.24,3.24,0,0,0-1.48-2.54l-2.7-1.52a3.31,3.31,0,0,0-3-.01Z" fill="#8cbe22"/>
        <path id="Path_1303" data-name="Path 1303" d="M338.41,198.61v-60.5a3.26,3.26,0,0,1,1.48-2.56l49.85-28.73c.82-.47,1.48-.09,1.48.85v60.5a3.26,3.26,0,0,1-1.48,2.56l-49.85,28.73C339.07,199.93,338.41,199.55,338.41,198.61Z" fill="#8cbe22"/>
        <path id="Path_1304" data-name="Path 1304" d="M339.89,199.46a3.38,3.38,0,0,1-3,0L334.24,198a3.19,3.19,0,0,1-1.49-2.53V134.91a3.06,3.06,0,0,1,.47-1.5l5.63,3.25a2.94,2.94,0,0,0-.44,1.45v60.5C338.41,199.47,339,200,339.89,199.46Z" opacity="0.2"/>
        <path id="Path_1305" data-name="Path 1305" d="M391.2,107.4c-.12-.74-.72-1-1.46-.58l-49.85,28.73a2.94,2.94,0,0,0-1,1.11l-5.64-3.25a2.86,2.86,0,0,1,1-1l49.86-28.74a3.26,3.26,0,0,1,3,0l2.69,1.52a3.21,3.21,0,0,1,1.4,2.21Z" fill="#fff" opacity="0.4"/>
        <path id="Path_1306" data-name="Path 1306" d="M326.12,175.92c-.93-.55-5.27-3-5.5-3.14a1.38,1.38,0,0,1-.29-2.11L332.88,155l5.53,3.17-12.54,15.66a1.4,1.4,0,0,0,.25,2.09Z" fill="#8cbe22"/>
        <path id="Path_1307" data-name="Path 1307" d="M326.12,175.92c-.93-.55-5.27-3-5.5-3.14a1.38,1.38,0,0,1-.29-2.11L332.88,155l5.53,3.17-12.54,15.66a1.4,1.4,0,0,0,.25,2.09Z" fill="#fff" opacity="0.4"/>
        <path id="Path_1308" data-name="Path 1308" d="M338.41,158.19l-12.54,15.66a1.32,1.32,0,0,0,.84,2.26l11.7,1.27L342,167.5Z" fill="#8cbe22"/>
        <path id="Path_1309" data-name="Path 1309" d="M379.81,148.16a18.82,18.82,0,0,1-.82,4.36,18.581,18.581,0,0,1-1.57,3.66,13.851,13.851,0,0,1-2.07,2.79,8.871,8.871,0,0,1-2.28,1.76,4.77,4.77,0,0,1-3.15.75,2.82,2.82,0,0,1-1.63-1c-.24.51-.49,1-.75,1.55a9.3,9.3,0,0,1-1,1.57,10.407,10.407,0,0,1-1.47,1.52,11.091,11.091,0,0,1-2.15,1.39,4.18,4.18,0,0,1-2.72.54,3.22,3.22,0,0,1-2-1.41,8.39,8.39,0,0,1-1.2-3.18,21.823,21.823,0,0,1-.27-4.77,30.153,30.153,0,0,1,.65-5.25,24.451,24.451,0,0,1,1.43-4.52,14.7,14.7,0,0,1,2.14-3.57,8.751,8.751,0,0,1,2.77-2.3,3.25,3.25,0,0,1,2.47-.53,2.66,2.66,0,0,1,1.29,1.2v-.54a2.92,2.92,0,0,1,.37-1.31,2,2,0,0,1,.8-.88l2.14-1.1a.6.6,0,0,1,.76.09,1.22,1.22,0,0,1,.28,1l-.51,12.79a2.2,2.2,0,0,0,.55,1.9,1.28,1.28,0,0,0,1.43,0,3.63,3.63,0,0,0,1.45-1.54,7.619,7.619,0,0,0,.79-3.08c.1-1.1.17-2.25.22-3.43s.05-2.27,0-3.27a20.222,20.222,0,0,0-.8-5.3,5.81,5.81,0,0,0-2-3.07,4.73,4.73,0,0,0-3.35-.73,14.59,14.59,0,0,0-4.88,1.68,16.82,16.82,0,0,0-4.32,3.17,21.718,21.718,0,0,0-3.36,4.43,27.51,27.51,0,0,0-2.35,5.35,31.882,31.882,0,0,0-1.28,5.89c-.07.55-.14,1.26-.18,2.12s-.09,1.78-.13,2.72-.07,1.85-.09,2.72,0,1.58,0,2.11a15.941,15.941,0,0,0,.85,4.74,7.1,7.1,0,0,0,2,3.06,4.86,4.86,0,0,0,3.13,1.1,9.38,9.38,0,0,0,4.24-1.2,24.689,24.689,0,0,0,2.93-1.73,17.768,17.768,0,0,0,2.18-1.77,15.938,15.938,0,0,0,1.62-1.74c.45-.56.87-1.12,1.24-1.66s.56-.83.74-1.06a2.37,2.37,0,0,1,.73-.58l3-1.55a.67.67,0,0,1,.79,0,1.2,1.2,0,0,1,.26,1.07,2.49,2.49,0,0,1-.33,1c-.61,1.13-1.29,2.33-2.05,3.58a27.33,27.33,0,0,1-2.71,3.68,30.433,30.433,0,0,1-3.68,3.53,28,28,0,0,1-5,3.21,12.53,12.53,0,0,1-6.23,1.68,6.72,6.72,0,0,1-4.42-1.8,10.42,10.42,0,0,1-2.7-4.56,23.381,23.381,0,0,1-1-6.56v-2.22c0-.93.06-1.91.1-2.94s.09-2,.14-2.92.1-1.66.15-2.19a39.441,39.441,0,0,1,1.54-7.82,38.16,38.16,0,0,1,3.18-7.6,32.941,32.941,0,0,1,4.79-6.6,23.139,23.139,0,0,1,6.38-4.82,16.21,16.21,0,0,1,7.05-2.14,6.6,6.6,0,0,1,4.63,1.64,9.34,9.34,0,0,1,2.55,4.63,29.689,29.689,0,0,1,.87,6.85c0,1,0,2.21-.06,3.59S379.91,147.05,379.81,148.16ZM361,155.47a8.18,8.18,0,0,0,.59,4.16,1.44,1.44,0,0,0,2.16.49,5.18,5.18,0,0,0,2.35-2.76,14.81,14.81,0,0,0,.94-5,8.6,8.6,0,0,0-.58-4.21c-.46-.84-1.2-1-2.21-.48a5.1,5.1,0,0,0-2.29,2.78A14.621,14.621,0,0,0,361,155.47Z" fill="#fafafa"/>
      </g>
    </g>
  </g>
</svg>
